<svg xmlns="http://www.w3.org/2000/svg" width="256" height="256" viewBox="0 0 256 256">
  <defs>
    <linearGradient id="grad" x1="0%" y1="0%" x2="100%" y2="100%">
      <stop offset="0%" style="stop-color:#4facfe;stop-opacity:1"></stop>
      <stop offset="100%" style="stop-color:#00f2fe;stop-opacity:1"></stop>
    </linearGradient>
  </defs>
  <circle cx="128" cy="128" r="120" fill="url(#grad)"></circle>
  <path d="M128 8a120 120 0 0 0 0 240 120 120 0 0 0 0-240zm0 24c20 0 40 40 40 96s-20 96-40 96-40-40-40-96 20-96 40-96zm-88 96c0-12 40-24 88-24s88 12 88 24-40 24-88 24-88-12-88-24z" fill="white" opacity="0.9"></path>
</svg>
